<svg width="201" height="46" viewBox="0 0 201 46" fill="none" xmlns="http://www.w3.org/2000/svg">
<path d="M48.2145 25.0396V22.6962H55.3228V35.5849H54.1511L53.1356 33.0853C52.5888 34.0226 51.8728 34.7777 50.9875 35.3505C50.1022 35.8973 49.1388 36.1707 48.0973 36.1707C44.3218 36.1707 42.4341 34.3481 42.4341 30.7028V15.0802C42.4341 13.3356 42.9679 11.9947 44.0354 11.0573C45.103 10.0939 46.7043 9.61224 48.8394 9.61224C50.9745 9.61224 52.5888 10.0939 53.6824 11.0573C54.776 11.9947 55.3228 13.3356 55.3228 15.0802V17.2283H52.5888V15.0802C52.5888 12.9971 51.352 11.9556 48.8784 11.9556C46.4048 11.9556 45.168 12.9971 45.168 15.0802V30.7028C45.168 31.6922 45.3763 32.4604 45.7929 33.0071C46.2096 33.5539 46.9646 33.8273 48.0582 33.8273C49.1779 33.8273 50.2063 33.3847 51.1437 32.4994C52.1071 31.6141 52.5888 30.7549 52.5888 29.9217V25.0396H48.2145ZM65.2822 35.5849H62.5482V10.1981H65.2822V35.5849ZM85.1828 35.5849H84.0111L82.9956 33.0853C82.4488 34.0226 81.7327 34.7777 80.8475 35.3505C79.9622 35.8973 78.9858 36.1707 77.9182 36.1707C74.1688 36.1707 72.2941 34.3481 72.2941 30.7028V26.7971C72.2941 23.1519 74.1688 21.3292 77.9182 21.3292H82.4488V14.9239C82.4488 13.9866 82.1493 13.2575 81.5505 12.7368C80.9516 12.216 80.0663 11.9556 78.8946 11.9556C76.5773 11.9556 75.4186 12.9451 75.4186 14.9239V17.2283H72.6846V15.0802C72.6846 13.3356 73.1924 11.9947 74.2078 11.0573C75.2494 10.0939 76.8116 9.61224 78.8946 9.61224C80.9777 9.61224 82.5399 10.0939 83.5814 11.0573C84.649 11.9947 85.1828 13.3356 85.1828 15.0802V35.5849ZM82.4488 23.6726H77.9182C76.8246 23.6726 76.0695 23.946 75.6529 24.4928C75.2363 25.0396 75.028 25.8077 75.028 26.7971V30.7028C75.028 31.6922 75.2363 32.4604 75.6529 33.0071C76.0695 33.5539 76.8246 33.8273 77.9182 33.8273C79.0118 33.8273 80.0273 33.4107 80.9646 32.5775C81.902 31.7183 82.3967 30.8721 82.4488 30.0388V23.6726ZM95.3372 35.5849H92.6032V10.1981H93.7749L94.7514 12.7368C96.0012 10.6538 97.7327 9.61224 99.9459 9.61224C103.773 9.61224 105.687 11.4349 105.687 15.0802V35.5849H102.953V15.0802C102.953 14.0907 102.732 13.3226 102.289 12.7758C101.873 12.229 101.092 11.9556 99.9459 11.9556C98.8002 11.9556 97.7457 12.3983 96.7823 13.2836C95.8189 14.1688 95.3372 15.0281 95.3372 15.8613V35.5849ZM122.692 30.7028V28.5547H125.426V30.7028C125.426 32.4473 124.893 33.8013 123.825 34.7647C122.758 35.7021 121.156 36.1707 119.021 36.1707C116.886 36.1707 115.272 35.7021 114.178 34.7647C113.085 33.8013 112.538 32.4473 112.538 30.7028V15.0802C112.538 13.3356 113.072 11.9947 114.139 11.0573C115.207 10.0939 116.808 9.61224 118.943 9.61224C121.078 9.61224 122.692 10.0939 123.786 11.0573C124.88 11.9947 125.426 13.3356 125.426 15.0802V18.7905H122.692V15.0802C122.692 12.9971 121.456 11.9556 118.982 11.9556C116.508 11.9556 115.272 12.9971 115.272 15.0802V30.7028C115.272 32.7858 116.508 33.8273 118.982 33.8273C121.456 33.8273 122.692 32.7858 122.692 30.7028ZM144.378 35.5849H143.206L142.19 33.0853C141.644 34.0226 140.928 34.7777 140.042 35.3505C139.157 35.8973 138.181 36.1707 137.113 36.1707C133.364 36.1707 131.489 34.3481 131.489 30.7028V26.7971C131.489 23.1519 133.364 21.3292 137.113 21.3292H141.644V14.9239C141.644 13.9866 141.344 13.2575 140.745 12.7368C140.146 12.216 139.261 11.9556 138.089 11.9556C135.772 11.9556 134.613 12.9451 134.613 14.9239V17.2283H131.879V15.0802C131.879 13.3356 132.387 11.9947 133.403 11.0573C134.444 10.0939 136.006 9.61224 138.089 9.61224C140.172 9.61224 141.735 10.0939 142.776 11.0573C143.844 11.9947 144.378 13.3356 144.378 15.0802V35.5849ZM141.644 23.6726H137.113C136.019 23.6726 135.264 23.946 134.848 24.4928C134.431 25.0396 134.223 25.8077 134.223 26.7971V30.7028C134.223 31.6922 134.431 32.4604 134.848 33.0071C135.264 33.5539 136.019 33.8273 137.113 33.8273C138.207 33.8273 139.222 33.4107 140.159 32.5775C141.097 31.7183 141.591 30.8721 141.644 30.0388V23.6726ZM154.532 35.5849H151.798V10.1981H152.97L154.103 13.0883C154.936 10.7709 156.264 9.61224 158.086 9.61224C161.185 9.61224 162.734 11.3047 162.734 14.6896V17.2283H160.117V14.5334C160.117 12.8149 159.401 11.9556 157.969 11.9556C157.11 11.9556 156.316 12.4504 155.587 13.4398C154.884 14.4292 154.532 15.8613 154.532 17.736V35.5849ZM170.171 35.5849H167.437V10.1981H168.608L169.741 13.0883C170.574 10.7709 171.902 9.61224 173.725 9.61224C176.823 9.61224 178.372 11.3047 178.372 14.6896V17.2283H175.756V14.5334C175.756 12.8149 175.04 11.9556 173.607 11.9556C172.748 11.9556 171.954 12.4504 171.225 13.4398C170.522 14.4292 170.171 15.8613 170.171 17.736V35.5849ZM195.182 35.5849H194.011L192.995 33.0853C192.448 34.0226 191.732 34.7777 190.847 35.3505C189.962 35.8973 188.985 36.1707 187.918 36.1707C184.168 36.1707 182.294 34.3481 182.294 30.7028V26.7971C182.294 23.1519 184.168 21.3292 187.918 21.3292H192.448V14.9239C192.448 13.9866 192.149 13.2575 191.55 12.7368C190.951 12.216 190.066 11.9556 188.894 11.9556C186.577 11.9556 185.418 12.9451 185.418 14.9239V17.2283H182.684V15.0802C182.684 13.3356 183.192 11.9947 184.207 11.0573C185.249 10.0939 186.811 9.61224 188.894 9.61224C190.977 9.61224 192.54 10.0939 193.581 11.0573C194.649 11.9947 195.182 13.3356 195.182 15.0802V35.5849ZM192.448 23.6726H187.918C186.824 23.6726 186.069 23.946 185.653 24.4928C185.236 25.0396 185.028 25.8077 185.028 26.7971V30.7028C185.028 31.6922 185.236 32.4604 185.653 33.0071C186.069 33.5539 186.824 33.8273 187.918 33.8273C189.011 33.8273 190.027 33.4107 190.964 32.5775C191.902 31.7183 192.396 30.8721 192.448 30.0388V23.6726Z" fill="#F6F6F6"/>
<path d="M32.9811 6.0755H2.60376V36.4529H32.9811V6.0755Z" fill="url(#paint0_linear_182_11)"/>
<path d="M19.9623 6.0755H15.6227V36.4529H19.9623V6.0755Z" fill="#0E0E0E"/>
<path d="M2.60376 19.0943L2.60376 23.434L32.9811 23.434V19.0943H2.60376Z" fill="#0E0E0E"/>
<path d="M35.5849 2.60376H21.6981V17.3585H35.5849V2.60376Z" fill="#0E0E0E"/>
<path d="M13.8868 25.1698H0V39.9245H13.8868V25.1698Z" fill="#0E0E0E"/>
<defs>
<linearGradient id="paint0_linear_182_11" x1="32.9811" y1="36.4529" x2="2.60376" y2="7.21465" gradientUnits="userSpaceOnUse">
<stop stop-color="#007BFF"/>
<stop offset="1" stop-color="#553CF1"/>
</linearGradient>
</defs>
</svg>
